<svg id="visual" viewBox="0 0 800 1400" width="800" height="1400" xmlns="http://www.w3.org/2000/svg" xmlns:xlink="http://www.w3.org/1999/xlink" version="1.1"><rect x="0" y="0" width="800" height="1400" fill="#437ca4"></rect><defs><linearGradient id="grad1_0" x1="0%" y1="100%" x2="100%" y2="0%"><stop offset="30%" stop-color="#437ca4" stop-opacity="1"></stop><stop offset="70%" stop-color="#437ca4" stop-opacity="1"></stop></linearGradient></defs><defs><linearGradient id="grad2_0" x1="0%" y1="100%" x2="100%" y2="0%"><stop offset="30%" stop-color="#437ca4" stop-opacity="1"></stop><stop offset="70%" stop-color="#437ca4" stop-opacity="1"></stop></linearGradient></defs><g transform="translate(800, 1400)"><path d="M-800 0C-794.9 -69.7 -789.7 -139.3 -772.7 -207.1C-755.7 -274.8 -726.9 -340.6 -687.6 -397C-648.4 -453.4 -598.7 -500.3 -548 -548C-497.4 -595.7 -445.7 -644.2 -385 -666.8C-324.3 -689.5 -254.4 -686.3 -188.7 -704.2C-123 -722 -61.5 -761 0 -800L0 0Z" fill="#65a7d7"></path></g><g transform="translate(0, 0)"><path d="M800 0C790.6 68.4 781.2 136.8 766 205.2C750.7 273.7 729.6 342.2 692.8 400C656 457.8 603.6 505 550.1 550.1C496.6 595.3 442 638.4 381 659.9C320 681.5 252.5 681.5 187.9 701.3C123.3 721 61.7 760.5 0 800L0 0Z" fill="#65a7d7"></path></g></svg>