<svg id="visual" viewBox="0 0 800 1400" width="800" height="1400" xmlns="http://www.w3.org/2000/svg" xmlns:xlink="http://www.w3.org/1999/xlink" version="1.1"><rect x="0" y="0" width="800" height="1400" fill="#FFFFFF"></rect><defs><linearGradient id="grad1_0" x1="0%" y1="100%" x2="100%" y2="0%"><stop offset="30%" stop-color="#ffffff" stop-opacity="1"></stop><stop offset="70%" stop-color="#ffffff" stop-opacity="1"></stop></linearGradient></defs><defs><linearGradient id="grad2_0" x1="0%" y1="100%" x2="100%" y2="0%"><stop offset="30%" stop-color="#ffffff" stop-opacity="1"></stop><stop offset="70%" stop-color="#ffffff" stop-opacity="1"></stop></linearGradient></defs><g transform="translate(800, 1400)"><path d="M-800 0C-778.9 -65.1 -757.9 -130.2 -741.8 -198.8C-725.8 -267.3 -714.8 -339.3 -674.6 -389.5C-634.4 -439.7 -565 -468.2 -516.9 -516.9C-468.8 -565.6 -442.1 -634.7 -394 -682.4C-345.9 -730.2 -276.3 -756.7 -207.1 -772.7C-137.8 -788.8 -68.9 -794.4 0 -800L0 0Z" fill="#b0edae"></path></g><g transform="translate(0, 0)"><path d="M800 0C760.5 60.7 721 121.3 704.2 188.7C687.3 256 693.1 330.1 662.5 382.5C632 434.9 565.1 465.6 519.7 519.7C474.4 573.8 450.5 651.4 400 692.8C349.5 734.3 272.5 739.6 201.4 751.5C130.3 763.3 65.1 781.7 0 800L0 0Z" fill="#b0edae"></path></g></svg>