<svg id="visual" viewBox="0 0 800 1400" width="800" height="1400" xmlns="http://www.w3.org/2000/svg" xmlns:xlink="http://www.w3.org/1999/xlink" version="1.1"><rect x="0" y="0" width="800" height="1400" fill="#b40000"></rect><defs><linearGradient id="grad1_0" x1="0%" y1="0%" x2="100%" y2="100%"><stop offset="30%" stop-color="#b40000" stop-opacity="1"></stop><stop offset="70%" stop-color="#b40000" stop-opacity="1"></stop></linearGradient></defs><defs><linearGradient id="grad2_0" x1="0%" y1="0%" x2="100%" y2="100%"><stop offset="30%" stop-color="#b40000" stop-opacity="1"></stop><stop offset="70%" stop-color="#b40000" stop-opacity="1"></stop></linearGradient></defs><g transform="translate(800, 0)"><path d="M0 800C-140.4 779.3 -280.7 758.7 -400 692.8C-519.3 627 -617.5 516 -680.7 393C-743.9 270 -771.9 135 -800 0L0 0Z" fill="#f0d0b4"></path></g><g transform="translate(0, 1400)"><path d="M0 -800C135.3 -772.4 270.5 -744.8 393.5 -681.6C516.5 -618.3 627.1 -519.5 692.8 -400C758.5 -280.5 779.3 -140.2 800 0L0 0Z" fill="#f0d0b4"></path></g></svg>